<svg xmlns="http://www.w3.org/2000/svg" viewBox="0 0 64 64" fill="none">
  <rect width="64" height="64" rx="14" fill="#1a1510"/>
  <g stroke="#d1ae6c" stroke-width="3" stroke-linecap="round" stroke-linejoin="round">
    <path d="M20 32C20 22 26 18 32 12C38 18 44 22 44 32"/>
    <path d="M20 32H44"/>
    <path d="M12 54V28L12 20L14 16L16 20V28V54"/>
    <path d="M52 54V28L52 20L50 16L48 20V28V54"/>
    <path d="M8 54H56"/>
    <path d="M28 54V46C28 43 30 42 32 42C34 42 36 43 36 46V54"/>
  </g>
</svg>
